<?xml version="1.0" encoding="utf-8"?>
<!-- Generator: Adobe Illustrator 24.1.2, SVG Export Plug-In . SVG Version: 6.00 Build 0)  -->
<svg version="1.1" id="Слой_1" xmlns="http://www.w3.org/2000/svg" xmlns:xlink="http://www.w3.org/1999/xlink" x="0px" y="0px"
	 viewBox="0 0 480 120" style="enable-background:new 0 0 480 120;" xml:space="preserve">
<style type="text/css">
	.st0{fill:#67B900;}
	.st1{fill:#009ED1;}
	.st2{fill:#FF6C00;}
</style>
<g id="Layer_1">
	<g>
		<g>
			<g>
				<path d="M260.6,68.6h6v21.8h13.7v5.5h-19.7V68.6z"/>
				<path d="M211.9,68.1c-8.5,0-14.6,6.4-14.6,14.2v0.1c0,7.8,6.1,14.1,14.5,14.1c8.5,0,14.6-6.4,14.6-14.2v-0.1
					C226.4,74.4,220.3,68.1,211.9,68.1 M220.1,82.3c0,4.7-3.4,8.5-8.2,8.5c-4.9,0-8.3-3.9-8.3-8.6v-0.1c0-4.7,3.4-8.5,8.2-8.5
					S220.1,77.6,220.1,82.3L220.1,82.3z"/>
				<path d="M153.9,68.6h6.5l5.7,18.5l6.1-18.5h5.2l6.1,18.5l5.7-18.5h6.3l-9.4,27.2h-5.3l-6.2-17.7l-6.2,17.7h-5.3L153.9,68.6z"/>
				<path d="M285.3,68.6H296c8.6,0,14.6,5.8,14.6,13.5v0.1c0,7.7-6,13.6-14.6,13.6h-10.7V68.6z M296,90.4c4.9,0,8.3-3.2,8.3-8.1
					v-0.1c0-4.9-3.3-8.2-8.3-8.2h-4.7v16.3H296z"/>
				<path d="M248.4,86.2c3.5-1.3,5.9-4.1,5.9-8.5v-0.1c0-2.6-0.8-4.6-2.4-6.2c-1.8-1.8-4.5-2.8-8-2.8h-12.7v27.2h6V74.1h6.2
					c2.9,0,4.8,1.5,4.8,4.3c0,4.1-7.7,5.9-7.7,5.9l7.6,11.6h7.1L248.4,86.2z"/>
				<path d="M452.4,68.6h20.9v5.5h-14.9v5.7h13.1v5.5h-13.1v10.5h-6L452.4,68.6L452.4,68.6z"/>
				<path d="M359,68.6h20.7V74H365v5.5H378v5.4H365v5.7h14.9v5.4H359V68.6z"/>
				<path d="M424.9,68.6h20.7V74h-14.7v5.5h12.9v5.4h-12.9v5.7h14.9v5.4h-20.9V68.6z"/>
				<path d="M347.1,86.2c3.5-1.3,5.9-4.1,5.9-8.5v-0.1c0-2.6-0.8-4.6-2.4-6.2c-1.8-1.8-4.5-2.8-8-2.8h-12.7v27.2h6V74.1h6.2
					c2.9,0,4.8,1.5,4.8,4.3c0,4.1-7.7,5.9-7.7,5.9l7.6,11.6h7L347.1,86.2z"/>
				<path d="M411.4,68.6h6v27.2h-6V68.6z"/>
				<path d="M386.6,68.6h6v21.8h13.7v5.5h-19.7V68.6z"/>
			</g>
			<g>
				<path d="M354.7,23.5h5.6l12.9,16.8V23.5h6v27.2h-5.1l-13.3-17.3v17.3h-6L354.7,23.5z"/>
				<path d="M236.6,23.5h6v10.8h11.1V23.5h6v27.2h-6V39.9h-11.1v10.9h-6V23.5z"/>
				<path d="M267.2,23.5h20.7v5.4h-14.7v5.5h12.9v5.4h-12.9v5.7h14.9v5.4h-20.9V23.5z"/>
				<path d="M217.2,29.1h-8.4v-5.6h22.7v5.6h-8.4v21.7h-6V29.1z"/>
				<path d="M333.1,23.5h5.6l11.8,27.2h-6.3l-2.5-6.2H330l-2.5,6.2h-6.2L333.1,23.5z M339.5,39.3l-3.6-8.5l-3.6,8.5H339.5z"/>
				<path d="M198,23.5v15.7c0,4.3-2.2,6.6-5.9,6.6s-5.9-2.3-5.9-6.8V23.5h-6v15.6c0,8.1,4.5,12.2,11.9,12.2s12-4.1,12-12.4V23.5H198
					z"/>
				<path d="M156.1,23.5h6v21.8h13.7v5.5h-19.7V23.5z"/>
				<path d="M312,41.1c3.5-1.3,5.9-4.1,5.9-8.5v-0.1c0-2.6-0.8-4.6-2.4-6.2c-1.8-1.8-4.5-2.8-8-2.8h-12.7v27.2h6V29h6.2
					c2.9,0,4.8,1.5,4.8,4.3c0,4.1-7.7,5.9-7.7,5.9l7.6,11.6h7L312,41.1z"/>
			</g>
		</g>
		<g>
			<path class="st0" d="M54.1,100.5c-4.1,3.4-9.3,5.5-15,5.5c-12.9,0-23.4-10.5-23.4-23.4s10.5-23.4,23.4-23.4c5.7,0,11,2.1,15,5.5
				l5.8-6.9c-5.6-4.7-12.9-7.6-20.8-7.6c-17.9,0-32.4,14.5-32.4,32.4c0,17.9,14.5,32.4,32.4,32.4c7.9,0,15.2-2.8,20.8-7.6
				L54.1,100.5z"/>
			<path class="st1" d="M119.4,66.4c-4-6.9-10.1-11.7-17-14.2l-3.1,8.5c5,1.8,9.4,5.3,12.3,10.3c6.4,11.2,2.6,25.5-8.6,31.9
				s-25.5,2.6-31.9-8.6c-2.9-4.9-3.7-10.5-2.8-15.7L59.5,77c-1.3,7.2-0.1,14.9,3.8,21.8c8.9,15.5,28.7,20.8,44.2,11.8
				S128.3,81.9,119.4,66.4z"/>
			<path class="st2" d="M81.4,9.3C65.9,0.4,46.1,5.7,37.2,21.2C33.2,28,32,35.8,33.3,43l8.9-1.6c-0.9-5.2-0.1-10.8,2.8-15.7
				c6.5-11.2,20.8-15,31.9-8.6s15,20.8,8.6,31.9c-2.9,5-7.3,8.5-12.3,10.3l3.1,8.4c6.9-2.5,13-7.4,17-14.2
				C102.2,38.1,96.9,18.3,81.4,9.3z"/>
		</g>
	</g>
</g>
</svg>
